
<svg xmlns="http://www.w3.org/2000/svg" version="1.1" xmlns:xlink="http://www.w3.org/1999/xlink" preserveAspectRatio="none" x="0px" y="0px" width="887px" height="576px" viewBox="0 0 887 576">
<defs>
<g id="lens_0_Layer0_0_FILL">
<path fill="#FFFFFF" stroke="none" d="
M 172.45 172.45
Q 202 142.85 202 101 202 59.15 172.45 29.6 142.8 0 101 0 78.45 0 59.5 8.6 43.2 15.95 29.6 29.6 7.65 51.5 2 80.25 0 90.2 0 101 0 142.85 29.6 172.45 39.45 182.3 50.7 188.85 73.1 202 101 202 142.8 202 172.45 172.45
M 166.8 35.25
Q 171.85 40.3 175.95 45.75 177.85 49.5 179.35 53.6
L 179.4 53.6
Q 180 55.25 180.6 57 181.15 58.75 181.65 60.5
L 181.65 60.45
Q 185.65 76.6 177.9 91.9
L 177.9 91.85
Q 169.55 108.15 152.6 114.2 152.45 114.25 152.3 114.3 141.85 117.5 133 114.2 135.5 108.1 135.5 101 135.5 87.75 126.95 78.15 134.3 69.35 134.45 56.3 134.45 56.15 134.45 56.1 134.45 55.95 134.45 55.8 133.95 35.8 119.65 21.45 109.5 11.35 96.55 8.1 98.75 8 101 8 139.5 8 166.8 35.25
M 182.35 94.15
Q 189.15 80.75 187.8 66.75 194 82.55 194 101 194 131.8 176.6 155.4 173.65 158.3 170.3 160.95
L 170.3 161
Q 168.9 162.05 167.5 163.15 165.95 164.25 164.45 165.2
L 164.5 165.2
Q 150.3 174 133.4 171.35 115.35 168.45 104.4 154.2 104.3 154.05 104.25 153.95 97.85 145 98.4 135.4 99.65 135.5 101 135.5 115.3 135.45 125.45 125.4 128.55 122.25 130.75 118.7 141.3 122.9 153.8 119.05 153.85 119 153.9 119 154.05 118.95 154.25 118.9 173.05 112.25 182.35 94.15
M 87.35 11.7
Q 103.95 12.9 116.1 25 128.95 37.9 129.45 55.95 129.45 56 129.45 56.05
L 129.45 56.25
Q 129.3 67.15 123.35 74.65 113.85 66.45 101 66.5 93.55 66.45 87.25 69.2 81.2 59.45 68.8 55.3 68.65 55.25 68.55 55.2 68.45 55.15 68.4 55.15 49.15 49.4 31.1 58.7
L 31.15 58.7
Q 18 65.3 10.9 77.15 16.85 53.6 35.25 35.25 47.8 22.65 62.8 15.9 67.05 13.95 71.55 12.5 75.7 11.9 80.1 11.7
L 80.15 11.7
Q 81.9 11.6 83.7 11.6 85.5 11.6 87.35 11.7
M 87.45 74.7
Q 93.55 71.5 101 71.5 113.1 71.45 121.7 79.95
L 121.75 80
Q 121.8 80.05 121.9 80.15 130.5 88.75 130.5 101 130.5 107.9 127.75 113.7 127.5 113.95 127.3 114.3 127.15 114.6 127.1 114.95 125.05 118.65 121.9 121.85 113.2 130.45 101 130.5 98.75 130.5 96.6 130.2
L 96.55 130.2
Q 96.4 130.15 96.25 130.15 87.05 128.75 80.2 121.85 71.5 113.2 71.5 101 71.5 88.75 80.2 80.15 83.45 76.85 87.25 74.85 87.3 74.75 87.4 74.75
L 87.45 74.7
M 11.9 86.35
Q 18.15 70.85 33.4 63.15 49.65 54.8 66.95 59.95
L 67 60
Q 67.05 60 67.15 60
L 67.2 60.05
Q 77.6 63.5 82.8 71.6 79.55 73.65 76.65 76.6 66.5 86.65 66.5 101 66.5 102.6 66.65 104.15 55.4 106.85 47.55 117.45 47.45 117.6 47.4 117.75 47.35 117.8 47.3 117.85 35.95 134.3 39.15 154.35 41.4 168.85 50.5 179.3 42.45 174 35.25 166.8 8 139.55 8 101 8 100.55 8 100.15 8.65 96.7 9.6 93.25 9.6 93.2 9.65 93.15 10.05 91.45 10.65 89.8 11.2 88 11.9 86.35
M 51.5 120.5
Q 51.55 120.5 51.55 120.45 58.1 111.6 67.4 109.15 69.5 118.3 76.65 125.4 83.9 132.65 93.4 134.7 92.55 146.15 100.2 156.85
L 100.2 156.9
Q 100.3 157.05 100.45 157.25 112.55 173.05 132.6 176.3
L 132.65 176.3
Q 147 178.5 159.6 173.3 134.55 194 101 194 86.3 194 73.3 190.1 69.25 188 65.4 185.45 65.35 185.4 65.3 185.4 63.8 184.45 62.35 183.4
L 62.4 183.45
Q 60.9 182.35 59.5 181.2 46.7 170.4 44.1 153.55 41.15 135.5 51.4 120.7
L 51.45 120.65 51.45 120.6
Q 51.45 120.55 51.5 120.55
L 51.5 120.5 Z"/>
</g>

<g id="brain_0_Layer0_0_FILL">
<path fill="#FFFFFF" stroke="none" d="
M 676.1 120.6
Q 669.35 113.85 659.85 113.85 651.85 113.85 645.85 118.6
L 617.35 94
Q 619.95 89.55 620 84.05 619.95 75.75 614.1 69.9 608.25 64 600 64.05 591.7 64 585.85 69.9 584.45 71.25 583.4 72.8
L 548.7 56.55
Q 549.4 53.75 549.45 50.65 549.4 41.1 542.7 34.4 535.95 27.65 526.45 27.65 516.9 27.65 510.2 34.4 507.2 37.35 505.55 40.9
L 465.35 33.15
Q 465.5 31.6 465.5 30 465.5 17.55 456.7 8.8 447.9 0 435.5 0 423.1 0 414.3 8.8 405.95 17.1 405.55 28.65
L 363.5 30.4
Q 362.2 22.9 356.55 17.2 349.2 9.85 338.85 9.85 328.5 9.85 321.2 17.2 313.85 24.5 313.85 34.85 313.85 36.15 314 37.4
L 270.9 47.05
Q 269.25 43.35 266.2 40.25 259.75 33.8 250.65 33.8 241.55 33.8 235.1 40.25 228.65 46.7 228.65 55.8 228.65 57.45 228.9 59.05
L 192.45 73.15
Q 191.95 72.55 191.45 72.05 187.05 67.65 180.85 67.65 174.65 67.65 170.25 72.05 165.85 76.45 165.85 82.65 165.85 84.3 166.15 85.8
L 132.65 106.2
Q 126.8 100.45 118.65 100.5 110.35 100.45 104.5 106.35 98.65 112.2 98.65 120.5 98.65 124.6 100.1 128.2
L 55.45 163.8
Q 49.9 158.95 42.4 158.95 34.1 158.95 28.25 164.85 22.4 170.7 22.4 178.95 22.4 187.2 28.25 193.1 30.5 195.3 33.1 196.7
L 21.95 261.55
Q 13.1 261.9 6.75 268.3 0 275 0 284.55 0 294.05 6.75 300.8 13.5 307.5 23 307.55 30.9 307.5 36.9 302.9
L 97.1 355.2
Q 94.05 360.3 94.05 366.6 94.05 375.9 100.65 382.5 107.25 389.1 116.55 389.1 125.85 389.1 132.45 382.5 137.45 377.5 138.65 370.95
L 177 372.5
Q 178.15 381.85 185.15 388.85 193.45 397.2 205.25 397.25 217.05 397.2 225.4 388.85 233.75 380.5 233.8 368.75 233.75 356.95 225.4 348.6 217.85 341.05 207.5 340.3
L 207.5 313.6
Q 216.6 312.25 223.45 305.45 231.95 296.9 232 284.95 231.95 276.75 228 270.2 226.65 267.9 224.8 265.85 224.15 265.15 223.45 264.45 221.5 262.45 219.35 260.95
L 238.4 228.65
Q 243.8 231.05 250.2 231.05 254.75 231.05 258.8 229.85
L 273.85 258.95
Q 270.95 260.8 268.4 263.4 259.15 272.6 259.15 285.65 259.15 298.65 268.4 307.9 276.4 315.9 287.3 317
L 287.15 335.9
Q 276.1 336.85 268 345 258.75 354.2 258.75 367.25 258.75 380.25 268 389.5 277.25 398.75 290.25 398.75 303.25 398.75 312.5 389.5 317 385 319.35 379.55
L 357.9 388.6
Q 357.9 388.75 357.9 388.95 357.85 399.25 365.2 406.6 372.55 413.95 382.9 413.95 393.2 413.95 400.55 406.6 407.85 399.25 407.9 388.95 407.85 383.3 405.7 378.6
L 462.4 333.75
Q 470.55 341.35 481.8 341.35 493.55 341.35 501.9 333 504.25 330.65 505.95 328.05
L 596.15 369.75
Q 595.85 371.6 595.85 373.55 595.85 383.5 602.9 390.55 609.95 397.55 619.9 397.55 624.6 397.55 628.65 396
L 645.6 420.55
Q 645.5 420.65 645.4 420.75 639.25 426.85 639.25 435.55 639.25 444.25 645.4 450.4 651.55 456.55 660.25 456.55 668.9 456.55 675.1 450.4 681.25 444.25 681.25 435.55 681.25 426.95 675.2 420.85
L 688.55 396.65
Q 692.4 398 696.8 398.05 706.7 398 713.75 391 720.8 383.95 720.8 374.05 720.8 364.1 713.75 357.05 713.4 356.7 713 356.35
L 734.2 316.7
Q 737.05 317.4 740.25 317.45 749.75 317.4 756.5 310.7 763.2 303.95 763.25 294.45 763.2 284.9 756.5 278.2 749.75 271.45 740.25 271.45 739.55 271.45 738.9 271.45
L 728.15 241.65
Q 730.95 239.95 733.4 237.5 741.3 229.55 741.35 218.4 741.3 207.25 733.4 199.3 725.5 191.4 714.35 191.4 708.85 191.4 704.15 193.35
L 676.15 153.05
Q 682.85 146.3 682.85 136.85 682.85 127.3 676.1 120.6
M 659.85 159.85
Q 665.2 159.8 669.7 157.7
L 697.3 197.45
Q 696.25 198.3 695.25 199.3 689.4 205.15 687.9 212.75
L 642.35 209.25
Q 641.2 200.55 634.7 194.05 633.45 192.8 632.15 191.8
L 652.4 158.65
Q 655.85 159.8 659.85 159.85
M 695.25 237.5
Q 695.7 237.9 696.15 238.35
L 670.25 273.25
Q 665.1 270.35 658.75 270.35 654.45 270.35 650.75 271.65
L 631.25 235.15
Q 633.05 233.8 634.7 232.2 641.05 225.8 642.3 217.3
L 687.45 220.75
Q 688.2 230.4 695.25 237.5
M 714.35 245.4
Q 717.65 245.4 720.75 244.7
L 731.05 273.3
Q 727.2 274.95 724 278.2 717.25 284.9 717.25 294.45 717.25 303.95 724 310.7 725.4 312.1 727 313.25
L 706.3 351.9
Q 701.95 350 696.8 350.05 693.15 350 689.95 350.95
L 672.6 314
Q 674.2 312.8 675.7 311.3 682.75 304.25 682.75 294.35 682.75 285 676.5 278.2
L 702.75 242.85
Q 708 245.4 714.35 245.4
M 658.75 318.35
Q 662.25 318.35 665.4 317.5
L 682.75 354.5
Q 681.2 355.65 679.8 357.05 672.75 364.1 672.8 374.05 672.75 383.95 679.8 391 680.7 391.85 681.65 392.65
L 668.65 416.25
Q 664.75 414.55 660.25 414.55 655.9 414.55 652.25 416.1
L 635.5 391.8
Q 636.15 391.2 636.85 390.55 643.85 383.5 643.9 373.55 643.85 363.65 636.85 356.6 635.75 355.55 634.65 354.65
L 651.7 317.35
Q 655 318.35 658.75 318.35
M 580.3 80.25
Q 579.95 82.05 580 84.05 579.95 92.05 585.55 97.85
L 571.6 115.35
Q 567.15 113.25 561.85 113.25 552.3 113.25 545.6 120 538.85 126.75 538.85 136.25 538.85 145.75 545.6 152.5 546.5 153.45 547.5 154.25
L 533.45 182.85
Q 529.85 181.9 525.9 181.9 513.9 181.9 505.45 190.4 500.6 195.2 498.55 201.15
L 468.35 195.1
Q 468.65 192.85 468.7 190.45 468.65 178.45 460.15 169.95 459 168.8 457.8 167.8
L 473.15 142.85
Q 478.65 145.4 485.25 145.4 497.25 145.4 505.75 136.9 514.25 128.4 514.25 116.4 514.25 104.4 505.75 95.95 504.7 94.9 503.65 94.05
L 517.6 71.95
Q 521.65 73.6 526.45 73.65 535.95 73.6 542.7 66.9 544.15 65.4 545.3 63.8
L 580.3 80.25
M 510.9 67.55
L 496.9 89.75
Q 491.55 87.4 485.25 87.4 473.25 87.4 464.75 95.95 456.25 104.4 456.25 116.4 456.25 128.4 464.75 136.9 465.6 137.75 466.45 138.5
L 451 163.65
Q 445.8 161.4 439.7 161.45 427.7 161.4 419.2 169.95 412.25 176.85 411 186.1
L 374.75 184.95
Q 373.65 175.3 366.45 168.15 357.95 159.6 346 159.6 337.5 159.6 330.75 163.9
L 316 145.45
Q 316.1 145.3 316.25 145.2 324.75 136.7 324.75 124.7 324.75 112.7 316.25 104.2 307.75 95.7 295.75 95.7 289.7 95.7 284.5 97.9
L 266.7 70.85
Q 272.65 64.55 272.65 55.8 272.65 55.3 272.65 54.85
L 316 45.15
Q 317.8 49.15 321.2 52.5 328.5 59.85 338.85 59.85 344.35 59.85 349 57.8
L 368.5 85.6
Q 368.25 85.85 368 86.1 358.75 95.35 358.75 108.35 358.75 121.4 368 130.65 377.2 139.85 390.25 139.85 403.25 139.85 412.5 130.65 421.75 121.4 421.75 108.35 421.75 95.35 412.5 86.1 411.75 85.35 410.95 84.65
L 425.75 58.45
Q 430.3 59.95 435.5 60 447.9 59.95 456.7 51.2 461.35 46.55 463.55 40.95
L 503.5 48.6
Q 503.45 49.6 503.45 50.65 503.45 60.15 510.2 66.9 510.55 67.25 510.9 67.55
M 540.85 186
L 554.55 158.15
Q 557.95 159.25 561.85 159.25 571.35 159.25 578.1 152.5 584.8 145.75 584.85 136.25 584.8 126.75 578.15 120.05
L 592.1 102.45
Q 595.7 104 600 104.05 606.85 104 612.05 100
L 640.4 124.5
Q 636.85 129.95 636.85 136.85 636.85 146.35 643.6 153.1 644.45 153.95 645.4 154.7
L 625.2 187.8
Q 620.75 186.1 615.6 186.1 604.45 186.1 596.5 194.05 588.6 201.95 588.6 213.1 588.6 224.25 596.5 232.2 597.8 233.5 599.25 234.6
L 585.05 262.75
Q 581.1 261.3 576.6 261.35 571.6 261.3 567.3 263.05
L 545.9 231.9
Q 546.15 231.65 546.4 231.4 554.9 222.9 554.9 210.9 554.9 198.9 546.4 190.4 543.8 187.8 540.85 186
M 414.3 51.2
Q 416.35 53.25 418.65 54.8
L 404.35 80.1
Q 397.95 76.85 390.25 76.85 381.75 76.85 374.9 80.8
L 355.65 53.35
Q 356.1 52.95 356.55 52.5 362.55 46.45 363.65 38.4
L 406.2 36.65
Q 407.95 44.85 414.3 51.2
M 374.7 192.95
L 410.9 194.1
Q 412 203.75 419.2 210.9 419.65 211.35 420.1 211.8
L 402.1 237.55
Q 397 235.45 391.1 235.45 379.1 235.45 370.6 243.95 362.05 252.45 362.1 264.45 362.05 275.6 369.45 283.75
L 311.5 344
Q 304.4 337.4 295.15 336.1
L 295.3 316.85
Q 305.35 315.45 312.9 307.9 322.15 298.65 322.15 285.65 322.15 272.6 312.9 263.4 303.65 254.15 290.65 254.15 285.55 254.15 281.05 255.55
L 266 226.4
Q 268.45 224.75 270.65 222.55 279.15 214.05 279.2 202.05 279.15 190.05 270.65 181.55 269.5 180.4 268.3 179.4
L 285.3 151.85
Q 290.15 153.7 295.75 153.7 303.4 153.7 309.65 150.25
L 324.65 169
Q 316.95 177.25 317 188.6 316.95 200.6 325.5 209.1 334 217.6 346 217.6 357.95 217.6 366.45 209.1 373.4 202.15 374.7 192.95
M 460.15 210.9
Q 463.85 207.2 466 202.8
L 496.95 209
Q 496.9 209.95 496.9 210.9 496.9 222.9 505.45 231.4 513.9 239.9 525.9 239.9 533.3 239.9 539.4 236.65
L 560.45 267.25
Q 559.65 267.9 558.9 268.65 551.55 276 551.6 286.35 551.55 287.95 551.75 289.55
L 508.25 302
Q 506.1 296.9 501.9 292.7 493.55 284.35 481.8 284.35 470 284.35 461.65 292.7 459.65 294.7 458.15 296.85
L 418.45 274.35
Q 420.1 269.75 420.1 264.45 420.1 252.45 411.6 243.95 410.3 242.7 409 241.65
L 426.65 216.45
Q 432.55 219.4 439.7 219.45 451.65 219.4 460.15 210.9
M 411.6 284.95
Q 413.3 283.25 414.65 281.4
L 454.6 304.05
Q 453.25 308.15 453.3 312.85 453.25 321.05 457.3 327.6
L 401.2 371.95
Q 400.85 371.6 400.55 371.25 394.85 365.6 387.45 364.3
L 392.9 293.4
Q 403.75 292.8 411.6 284.95
M 375.5 289
Q 379.85 291.8 384.9 292.85
L 379.4 364.15
Q 371.25 365.2 365.2 371.25 361 375.45 359.2 380.7
L 321.45 371.85
Q 321.75 369.6 321.75 367.25 321.75 357.65 316.75 350.1
L 375.5 289
M 615.6 240.1
Q 620.15 240.1 624.15 238.8
L 643.8 275.6
Q 642.75 276.4 641.8 277.4 634.75 284.4 634.75 294.35 634.75 304.25 641.8 311.3 643.1 312.65 644.55 313.75
L 627.6 350.75
Q 624 349.55 619.9 349.55 609.95 349.55 602.9 356.6 600.35 359.15 598.7 362.15
L 509.25 320.75
Q 510.25 317 510.3 312.85 510.25 311.25 510.15 309.8
L 554 297.25
Q 555.8 300.9 558.9 304 566.25 311.35 576.6 311.35 586.9 311.35 594.25 304 601.6 296.65 601.6 286.35 601.6 276 594.25 268.65 593.15 267.55 592.05 266.65
L 606.2 238.5
Q 610.6 240.1 615.6 240.1
M 250.65 77.8
Q 255.9 77.8 260.3 75.65
L 277.65 102.05
Q 276.4 103.05 275.25 104.2 266.75 112.7 266.75 124.7 266.75 136.7 275.25 145.2 276.75 146.7 278.35 147.9
L 261.45 175.25
Q 256.25 173.05 250.2 173.05 238.2 173.05 229.7 181.55 221.15 190.05 221.2 202.05 221.15 214.05 229.7 222.55 230.65 223.5 231.65 224.35
L 212.2 257.35
Q 207.9 255.9 203 255.95 197 255.9 191.9 258.05
L 170.7 222.15
Q 171.25 221.6 171.85 221.05 179 213.85 179.05 203.75 179 193.6 171.85 186.45 164.65 179.25 154.55 179.25 151.55 179.25 148.85 179.85
L 130.3 136.75
Q 131.6 135.8 132.8 134.6 136.85 130.55 138.1 125.3
L 186.85 127.1
Q 188.1 134.7 193.85 140.45 201.15 147.75 211.5 147.8 221.85 147.75 229.15 140.45 236.5 133.1 236.5 122.8 236.5 112.45 229.15 105.1 221.85 97.75 211.5 97.8 205.5 97.75 200.55 100.25
L 194.15 89.7
Q 195.85 86.5 195.85 82.65 195.85 81.5 195.7 80.4
L 231.45 66.6
Q 232.9 69.15 235.1 71.35 241.55 77.8 250.65 77.8
M 170.25 93.25
Q 174.65 97.65 180.85 97.65 185.05 97.65 188.4 95.65
L 194.05 104.9
Q 193.9 105 193.85 105.1 187.85 111.1 186.75 119.1
L 138.4 117.3
Q 138.05 114.95 137.2 112.8
L 169.9 92.9
Q 170.05 93.05 170.25 93.25
M 62.3 181.15
Q 62.4 180.05 62.4 178.95 62.4 174.1 60.4 170.1
L 104.7 134.8
Q 110.5 140.45 118.65 140.5 120.9 140.45 123 140.05
L 141.5 182.95
Q 139.25 184.4 137.25 186.45 132.7 190.95 131.05 196.65
L 62.3 181.15
M 56.55 193.1
Q 58.5 191.1 59.85 188.8
L 130.05 204.6
Q 130.35 214.15 137.25 221.05 144.4 228.25 154.55 228.25 159.6 228.25 163.95 226.45
L 185 262.15
Q 183.7 263.2 182.5 264.45 175.95 270.95 174.45 279.5
L 131.3 280.3
Q 130.4 272.15 124.4 266.15 117.35 259.1 107.45 259.1 102.05 259.1 97.5 261.2
L 55.1 194.4
Q 55.85 193.75 56.55 193.1
M 90.5 266.15
Q 84.2 272.45 83.55 281.05
L 45.75 281.05
Q 44.75 273.75 39.25 268.3 35.1 264.15 29.95 262.55
L 40.85 198.9
Q 41.6 198.95 42.4 198.95 45.35 198.95 48.05 198.2
L 90.95 265.75
Q 90.7 265.95 90.5 266.15
M 90.5 300.1
Q 97.5 307.1 107.45 307.1 117.35 307.1 124.4 300.1 129.55 294.95 130.95 288.3
L 174.1 287.5
Q 174.9 297.85 182.5 305.45 189.7 312.65 199.5 313.75
L 199.5 340.75
Q 191.35 342.35 185.15 348.6 178.3 355.4 177.05 364.5
L 138.8 362.95
Q 137.7 355.95 132.45 350.7 125.85 344.1 116.55 344.1 108.4 344.1 102.35 349.15
L 42.35 297
Q 44.75 293.35 45.6 289.05
L 84.15 289.05
Q 85.65 295.25 90.5 300.1 Z"/>
</g>

<g id="Layer0_0_FILL">
<path fill="#FFFFFF" stroke="none" d="
M 389.75 513.5
Q 389.85 514.55 389.75 517.6 387.75 521.5 373.75 523.1 364 524.2 356.95 528 352.3 530.45 349.2 534.65 345.9 539.1 345.75 548.1 345.6 558.1 351.3 563.25 357.55 568.8 366.8 568.5 376.05 568.2 381.4 565.9 385.35 564.2 391 559.05 391.1 563.6 392.05 566.4
L 415.95 566.25
Q 416.05 564.6 414.95 562.85 413.4 560.3 412.5 556.85 412.05 555.1 412.15 551.15 412.4 543.3 412.4 543
L 412.4 521.5
Q 412.4 511.1 408.75 504.45 405.85 499.1 399.5 496.05 392.8 492.75 380.3 492.75 366.75 492.75 358.25 498.7 354.3 501.45 352.25 504.7 349.55 508.95 347.7 516.95
L 368.7 517.35
Q 370.4 512.5 371.9 511.5 375.2 509.1 378.05 508.9 385.6 508.35 388.45 510.9 389.6 511.9 389.75 513.5
M 371.15 538.8
Q 373.25 537.35 380.05 535.95 386.8 534.45 390 533.45
L 390 536.7
Q 389.95 542.55 389.3 544.65 388.35 547.85 385.45 550.05 381.4 552.95 377 552.95 373.05 552.95 370.5 550.45 367.9 547.95 367.95 544.55 367.9 541.05 371.15 538.8
M 504.7 529.5
Q 504.7 511.45 496.05 501.8 487.35 492.1 474.15 492.15 461.95 492.15 453.1 502.35
L 453.05 503.35 453.05 469.4 429.95 469.4 429.95 566.2 451.75 566.2 451.75 556.05
Q 456.1 562.2 462.2 565.3 468.15 568.4 474.4 568.45 487 568.4 495.9 558.35 504.65 548.25 504.7 529.5
M 476.9 515.2
Q 480.7 519.85 480.7 530.4 480.7 540.35 476.95 544.95 473.1 549.6 467.75 549.6 462.5 549.6 458.85 545.95 457.6 544.7 456.55 543.1 455.8 541.9 455.25 540.45 453.55 536.05 453.55 528.95 453.55 526.6 453.85 524.55 454.55 518.45 457.45 515.05 461.3 510.45 467.15 510.5 473.05 510.45 476.9 515.2
M 157.2 469.4
L 132.1 469.4 132.1 566.2 157.2 566.2 157.2 469.4
M 100.2 474.35
Q 95.45 471.35 89.55 470.4 83.55 469.4 71.45 469.4
L 30.7 469.4 30.7 566.2 65.4 566.2
Q 85.1 566.05 90.25 565.55 98.45 564.7 104.1 561 109.65 557.2 112.95 551 116.15 544.75 116.15 538.15 116.15 529.75 111.1 523.55 106.1 517.35 96.8 514.75 103.4 511.95 107.3 506.25 111.1 500.6 111.1 493.8 111.1 487.5 108 482.5 104.85 477.4 100.2 474.35
M 55.55 488.55
L 65.2 488.55
Q 77.1 488.55 79.65 488.8 83.85 489.25 86.05 491.6 88.15 493.85 88.15 497.55 88.15 501.4 85.7 503.8 83.2 506.1 78.85 506.6 76.45 506.85 66.6 506.85
L 55.55 506.85 55.55 488.55
M 55.55 525.6
L 69.15 525.6
Q 80.65 525.55 84.15 526.75 87.6 527.85 89.4 530.4 91.25 532.85 91.25 536.45 91.25 540.65 88.9 543.2 86.5 545.7 82.75 546.4 80.3 546.85 71.15 546.85
L 55.55 546.85 55.55 525.6
M 193.25 469.4
L 166.35 469.4 200.95 566.2 221.8 566.2 256.45 469.4 230.4 469.4 211.8 537.55 193.25 469.4
M 292.15 469.4
L 267.05 469.4 267.05 566.2 339.35 566.2 339.35 545 292.15 545 292.15 469.4
M 317.7 439.3
Q 311.55 439.3 305.75 443.25 301 446.5 299.85 456.15
L 310.7 456.25
Q 311.05 451.45 312.9 449.75 314.85 447.95 317.25 447.95 320.5 447.95 322.15 449.4 323.7 450.8 323.7 453.85 323.7 457.05 322.05 459.3 321 460.65 311.1 468.1 305.4 472.85 302.5 477.2 299.7 481.4 298.95 487.4
L 334.2 487.4 334.2 477.7 315.2 477.7 316.3 476.5
Q 317.7 475.1 322.35 471.25 328.5 466.9 329.7 465.5 332.2 462.65 333.5 459.75 334.2 458.15 334.2 453.15 334.2 447.6 329.75 443.75 324.5 439.3 317.7 439.3 Z"/>
</g>

<path id="fibo_grid_0_Layer0_0_1_STROKES" stroke="#FFFFFF" stroke-width="3" stroke-linejoin="round" stroke-linecap="round" fill="none" d="
M 660.775 378.6
L 660.775 408.35 660.775 534.5 864.975 534.5 864.975 330.4 660.775 330.375 660.775 378.6 612.55 378.6 612.55 408.35 660.775 408.35
M 864.975 330.4
L 865 0 534.55 0 534.55 330.375 612.55 330.375 660.775 330.375
M 612.55 408.35
L 612.55 408.375 534.575 408.375 534.55 408.375 534.575 534.55 660.775 534.55 660.775 534.5
M 612.55 330.375
L 612.55 378.6
M 534.575 408.375
L 534.575 408.35 612.55 408.35
M 534.575 534.55
L -0.025 534.55 0 0 534.55 0
M 534.55 330.375
L 534.55 408.375"/>

<path id="fibo_spiral_0_Layer0_0_1_STROKES" stroke="#FFFFFF" stroke-width="5" stroke-linejoin="round" stroke-linecap="round" fill="none" d="
M 0 534.55
Q 0 497 4.5 461.3 26.5 286.65 156.4 156.35 313.2 0 534.5 0.05 535.4 0 536.3 0.05
L 557.95 0.6
Q 679.65 8.4 767.95 96.65 814.6 143.3 838.8 199.15 864.9 259.4 864.9 330.4 864.9 331.8 864.9 333.2
L 864.45 346
Q 859.3 420.5 805 474.65 750.9 528.95 676.45 534.1 675.55 534.15 674.65 534.2 673.05 534.3 671.4 534.35 666.1 534.6 660.7 534.6 657.4 534.6 654.2 534.5 606.15 532.2 571.4 497.5 534.5 460.55 534.5 408.35 534.5 405.9 534.55 403.55 536.15 374.3 557.25 353.15 578.8 331.65 608.75 330.4 610.55 330.3 612.45 330.3 614.35 330.3 616.25 330.4 633.8 331.65 646.6 344.4 660.2 358.05 660.7 377.05
L 660.7 377.45
Q 660.55 391.05 652 399.65 643.3 408.3 631 408.35
L 630.95 408.35
Q 623.3 408.35 617.9 402.95 612.5 397.6 612.55 389.95
M 534.5 0.05
L 534.55 0.05
Q 535.4 0.05 536.3 0.05"/>
</defs>

<g transform="matrix( 1, 0, 0, 1, 4,37.05) ">
<g transform="matrix( 1, 0, 0, 1, 0,0) ">
<use xlink:href="#fibo_grid_0_Layer0_0_1_STROKES"/>
</g>
</g>

<g transform="matrix( 1, 0, 0, 1, 4.1,37.05) ">
<g transform="matrix( 1, 0, 0, 1, 0,0) ">
<use xlink:href="#fibo_spiral_0_Layer0_0_1_STROKES"/>
</g>
</g>

<g transform="matrix( 1, 0, 0, 1, 532.85,358.25) ">
<g transform="matrix( 1, 0, 0, 1, 0,0) ">
<use xlink:href="#lens_0_Layer0_0_FILL"/>
</g>
</g>

<g transform="matrix( 1, 0, 0, 1, 123.2,2) ">
<g transform="matrix( 1, 0, 0, 1, 0,0) ">
<use xlink:href="#brain_0_Layer0_0_FILL"/>
</g>
</g>

<g transform="matrix( 1, 0, 0, 1, 0,0) ">
<use xlink:href="#Layer0_0_FILL"/>
</g>
</svg>
